<mxfile host="app.diagrams.net" modified="2023-12-06T01:41:38.435Z" agent="Mozilla/5.0 (Windows NT 10.0; Win64; x64) AppleWebKit/537.36 (KHTML, like Gecko) Chrome/117.0.0.0 Safari/537.36" etag="dwpRySM3w8zkOEpVrgjT" version="21.7.2" type="device">
  <diagram name="Page-1" id="Yc7x3m7l_o5Am4Y6g06C">
    <mxGraphModel dx="794" dy="456" grid="1" gridSize="10" guides="1" tooltips="1" connect="1" arrows="1" fold="1" page="1" pageScale="1" pageWidth="827" pageHeight="1169" math="0" shadow="0">
      <root>
        <mxCell id="0" />
        <mxCell id="1" parent="0" />
        <mxCell id="lFWqmO6kSk8XSNsCCj2o-1" value="" style="shape=image;verticalLabelPosition=bottom;labelBackgroundColor=default;verticalAlign=top;aspect=fixed;imageAspect=0;image=data:image/png,iVBORw0KGgoAAAANSUhEUgAAAvoAAAIxCAYAAAA8MByiAAAAAXNSR0IArs4c6QAAAARnQU1BAACxjwv8YQUAAAAJcEhZcwAAFiUAABYlAUlSJPAAAGNTSURBVHhe7d0HnFTV3f/x73Rgd2lSBEFQUFQk2FHsDaOxYkME7MYSUzT1yWP+/yRPkn+ayZNYokbsqKio0YhisDeMWIKiKIgo0qXtArtT/3PO3IFh3V22TLt3Pm9f85pz7r0s6+5h9jtnz/0dXypNRVZbV6ea6mqnB7gL4xduxxiG2zGG4WbFHL9+5xkAAACAhxD0AQAAAA8i6AMAAAAeRNAHAAAAPIigDwAAAHgQQR8AAADwIII+AAAA4EEEfQAAAMCDCPoAAACABxH0AQAAAA8i6AMAAAAeRNAHAAAAPIigDwAAAHgQQR8AAADwIII+AAAA4EEEfQAAAMCDCPoAAACABxH0AQAAAA8i6AMAAAAeRNAHAAAAPIigDwAAAHgQQR8AAADwIII+AAAA4EEEfQAAAMCDCPoAAACABxH0AQAAAA8i6AMAAAAeRNAHAAAAPIigDwAAAHiQ/7mPX3CaAAAAALzC/+zHzzlNAAAAAF7hO/mWsakbz/irelf1cg5lNESjTiv/6jZsUHVVldMD3IXxC7djDMPtKmUM95lynVaMv9rpwSuKOX59p9x6eurWcTepd3Vv51Dh1dbVqaa62ukB7sL4hdsxhuF2lTKGO9/yC2269GdOD15RzPHLzbgAAACAB/lH9N+zqLP5AAAAAArPP26fs5wmAAAAAK/wD99+D6cJAAAAwCtYow8AAAB4EEEfAAAA8CCCPgAAAOBBBH0AAAAXqR01xmkBLSPoAwAAAB7kS6U57aJhV0a4GeMXbscYhtt5fQybHXEbMzvkNjWTXzNrhtOCW7AzLgAAAIAOIegDAAAAHkTQBwAAADyIoA8AAAB4EEEfAAAA8CCCPgAAAOBBBH0AAFBxmiphWSrl9LnAWwj6AAAAgAcR9AEAAAAPIugDAAAAHkTQBwAAcNSOGuO0CoP1+Cgmgj4AAADgQQR9AABQMcyMenZWPbdtZvKzs/m5bcDNCPoAAACABxH0AQAAAA8i6AMAAJRAc8uIgHwh6AMAABRYW0L9pkt/Zh+N20BbEfQBAABKIN+BnhuI0RhBHwAAAJvxhsE7CPoAAACABxH0AQAAAA8i6AMAALhY7gZfuW2AoA8AAOACNbNm2EfjNtAcgj4AAADgQQR9AAAAwIMI+gAAAIAH+VJpTls33nyX09riim9Oclpb49oMrs3g2gyuzeDajHK9duK5Y1VTXe30tvDC/xvXZnj92tq6uq+M4dZ+XLMj7R9Tg53eFhMn3+O0tjBr4PP1/9Z4J9ymPofGH9f8GbOJ1rY+h9ybb+++cILT2qKtn6/5eI3X/+fr69BYJV7bkfFrtOXarYJ+sTT1Pwi4BeMXbscYhtt1ZAw3DtyGCdNNVarJ582uzf29LckG/cYaB/G2fu6l+hogo5ivwSzdAQAA8CAT6Bs/UFkI+gAAAC7S0Vl2M3uf/U1BbhveQ9AHAADYhqaWtRQaARwdRdAHAAAAPIigDwAAAHgQQR8AACDPuPEV5YCgDwAAAHgQQR8AAADwIII+AACAi5lym40fBmU0QdAHAABohimrmS2tmdtuTu7GVGxShVIj6AMAgIqXOxOe284XZtdRCgR9AACAIiHgo5gI+gAAAIAHEfQBAADaiTX4KGcEfQAAAMCDCPoAAACAB/nW19amnHbR1G3YoOqqKqcHuAvjF27HGIbbtWUM95lynVaMv9rpZfqN5Z7X0WOlmdOcTprpN5Zzvs0fvwQaf45ZXzm+jf9X5EcxX4N9qTSnXTS1dXWqqa52eoC7MH7hdoxhuF1bxrBZQ59b6aapNfUtVcJpqm5+bunNjn78Ymj8OWY1Pr6t/1fkRzFfg1m6AwAAAHgQQR8AAADwIII+AAAAylJTy4nQegR9AACANjLr27Pr8XPbQDkh6AMAAOSJubk1e4NrbhsoBYI+AAAA4EEEfQAAAJQUS58Kg6APAACAkmjuXgdzE272RtzcNtqGoA8AAAB4EEEfAAB4TnMzxdiitTcKZ2fUcx+l1tbPoRw+51Ig6AMAgIqRrYST+0BGzawZ9tG4Dfci6AMAAMDVsr+1yX0Yub+ByG1XCoI+AAAAUIYS8z9R/JnnFfvnM4o9+qRiUx9T9J4HFb19iqK33dvkI/bgY4q/8KqS8+YT9AEAAIBykVy8RPHpM9Xw++sVu/MBxV98TYnX31Ri9rtKzJlrA3zyk0VKfvpZk4/Ef+Yq/q8X7BsCgj4AAECesfa/MLy6FCe5ZJniTz+rhj/eqOjNdyr+6htKra91zkq+ThH5aqrl69lD/n595R80QP7BOzbxGChfj27On2LpDgAAAMpMRdwYXN9gZ+qj1/9d0ZtuV/zlWUqtXZc5FwopsPcIhSecqU6//IkiP71akR9epcj3LlP4igsVvniiwhed28RjgiJXX5H5M+lngj4AAABQJKn5CxV74FHV/+o6u/Y+uXxl5kQoqMDI4Qqfe4Y6/ez7Co09Uf5hQzPn2sHM7BP0AQAAgAKy6+7N0pybbpcvHfIT733gnEkH8h0HKHTqCYr8+DsKnXGy/Lvt4pzpOII+AACAh7X1foFCLpPJlr2sBHbd/TPPq+E6Z929WZqTPmb4qqsUOPRARb57mSKXTFRg35HyhcP2XD4R9AEAAIA8SbzxVjrc36SqJ26xFXNSa5x195GIAvvtJT37kiI/+rZCY46Ub7semXMFQtAHAAAAOqKhwYb6ht/8WbHHn06H+7WZ4+GwAvt8TeGJZ6nTf1+t0CnHZ44XCUEfAAAAaKf49H+p/rd/tct0Uhs32WO+Ht3tc6drr1HotG/Iv+sQ2y82gj4AAABcobmym+Y+hOy9CLntQjGbVsXuf0T11/5G8Vf/LcVi9ri/b2+Fx52myNWX236pEfQBAACAbUitXqPYjOfU8Lu/2l1nE+9/6JxJB+qdByl83jiFv3Wxql6ZuvmmY/OcbZdisy+CPgAAAPKqcYjNDby57W0pZAWg1kjV1tlqOdGb71DDn/6mxEuv22OGr2uNgkccrMg1Vyh8wXj5h+5kj+dba79WTSHoAwAAoCSyy2xyH61R0DcAGzYq/uobit5yl529N/Xvk4uXOieV2dTq/HMU+cG3FDz6MPm6d3POlB+CPgAAACpWKhpTcv5CezNt9PYpqv/fmxWfPlPJz79wrsgszTEVcyI/vTqzqdWQwc6Z0mnN0h+CPgAAACpHPK7kwkWKz3xR0VvvVsMv/6Donffb8pjJTxZJm+rtZf7BAxU66euK/OS7dmmOqYHv6xSx54qhueVOuev7c9tNIegDAACg3TqyhrwU6n/+e0UnT1H8+VeU/Gyxc9SUxOymwD4jFTrjJEV+eJXCF01Q4IC95evS2bnCfQj6AAAA8IzkRwvs7HzsocedI03z1VQrMHJPhU49QZGrr7CP0Gkn2GPmnBcQ9AEAAOBaqXXrlXj9TUVvvtP2o3dPtevtE+++Z/uNBU86TpHvfNPO2pvZ+8C+I+1svhcR9AEAAOAqyUWL02H+BUWv/7sa/nCDYv98RsnFS5yzGf7+2zutrQUP2Ee+Xj2dnrcR9AEAAOAKqWXL1XDznYr+/W7FX3xVyeUrnTPpUDtooH0OXzpJnX75E4Uvv8D2KxlBHwAAAG3WVFWYtlSEaQuzPCf24GNquGGyUtmZ+04RBfbaU6GzTrFlL8MXT7CH/QN3sM8g6AMAAKBcbapXbPpMuzwn8Z+59pDZkTZ09qnqZGran36SAiP2yHvZy2JWEsq+Scp95AtBHwAAoBlmB9bsLqy57dxdXNuyoytaz+xOW/+nm5RIP1vhsILHHWl3pA3suXvmWBHl67cTrZWPMUbQBwAA2IZswEfhmc2sGv5yq92dNrt5VXD0AYpcc4WChxxo+2gdgj4AAEA7MZOfP6naOkWnPmo3s0qtXGWPBYYPU+TqyxU8/uiy3bgqn0tt8o2gDwAAgNJJJOwGVw1/+puScz6wh0z5y/AF4xUaN1a+Ht3tMbQdQR8AALhGOc+eou0Sb8/JlMp85nkpFpNCQQXHHGk3tPLvPMi5qnhyb4bNtgtVSagYCPoAAAAouob/vVmxaU8ouXip7ftH7K7I9y5X8FDW4ecLQR8AAABFl1q12j77B/RX+LLzFT7rVPlqqu2x9uKeia0R9AEAANCsQpUYNWvvQ+eMVfib58m/Qz/naHEVcynY5q/dzGl5/Tq2hKAPAABcK7uOOveBwsgG07YyS3SaEv7uNxXYY5jTQ3NaG/yz9w/kPgj6AADAc7Izo7kPFJ55M1A19TZ1/u3/Ufj0kxQac6RdorPm85DWbuqrupHf0Kbzf2y/Hz6/u2No7hvLYr7JzP1tQG67KQR9AAAAtJt9ExWLK/HmO4pe/3dF/36P4jNftHXxDf+woQqfN85W0gmM2tfucFtqhQzpuW8sc9ul4EulOe2iqa2rU011x262AEqF8Qu3YwzDzUwgWzH+6s1juKmAVspgVWlSa9cp/vIsWyZT0ahzNK1zZwX2Gq7gQQfI16Obc7B0zDKWpma+zfhparw0d7wpbf0Yzb0Gt+XvNBr/P5l+Y8zoAwAAoG02bFT0/kfU8McblZg1e3PI9/frq9CpJyjyw28pdMKxZRHyK0XuMp5sm6APAACAVjNLdOr//Dcl3//QOSIFRg5X5JKJCl9xoQL7jpQvGHTOoJQI+gAAANim1Jdr7Pr72GPTpfoGe8y/y86KXHOFQmecLN+OA+wxlA+CPgAAAFoUf/4VNZhZ/EWf276vezeFx5+u8KSzbRvliaAPAACAJiWXLlfDX2+1VXSygkceYmfx/bvv6hxBuSLoAwAA4CvMLH70xslKrVhl+4Fdh9iAHzzqUNt3k9zqNJWEoA8AAMqeKT1oHkafKddtbiP/zAZX0b/dsXkW3xcOKXTaCQpNPKtilum0pcxlc9r6MfLxdzbmW19bW/Q6+nUbNqi6qsrpAe7C+IXbMYYryNFjpZnTnI67mXDfmKmnn2XO5/bRPr7X3lTq2ZecXtqggdJJY6RuXZ0DaKytY6/gr8E5/+7ZMAtoI8Yv3I4xXDma2yTIjZqawc+dAW3rZkNoZFO9og88ouSCTzP9YFDBY49QcPT+mT6a1daxV+jX4Nx/9yzdAQAAqGBmDX7DTZM3h3yz6VXkqosJ+R5A0AcAAKhQybnz1PC325Vas872/XsMU/iSSfL17GH7cDeCPgAAQAWKP/OCovdNk2Jx2w+OOVLhc8ZKIXa19QqCPgAAQIWJPfCo4i++atu+ThG78VXw0ANtH95B0AcAAK7HjbitFI8rev8jSrz3ge36e/dS+PIL5N9lZ9uHtxD0AQAAKkBq4yZFb7tXyfc/tH3/0J0Uvuw81uN7GEEfAADA45LLV9pdbpOLl9h+YORwhc8bJ4XDtg9vIugDAAB4WPLjTxS95S6l1q23/cChByp0xsm2DW8j6AMAAHhU4o23FL3rASkatf3QN45VaMyRtg1vyt0kj6APAADgQfGZLyr2+NNOT7Z0ZuDA/Zwe8qWcbwQn6AMAAHhM7IkZij//SqYTiSh80bl2MyxUFoI+AACAh8QeflyJWbNt21dTrfAlE+UfvKPto7IQ9AEAADwieu9DSrzznm37em+n8GXny9+3t+2j8hD0AQAA3C4WU3TyFCU//Nh2/YMGKHzpefJ1rbF9VCaCPgAAgJvVN2RC/sJFthsYvpvCF0+Ur1PE9lG5CPoAAAAulaqtU8Mtd23ZCGvUvgqNO822AYI+AACAC6XWrFP05juVWrnK9oPHHqHQiWNsGzAI+gAAAC6TWr5SDTffsXm329DpJyp42EG2DWT5UmlOu2hq6+pUU13t9AB3YfzC7RjD3tL5ll84rS1W3Pay09oid7dMN2rq/7OcNyoqpOTipYreeZ9dm+8LhxQaf4b8QwY7Z1HuivkazIw+AACASyQXfKrY7fdmQn5VF4UunkjIR7MI+gAAAC6QnDdf0bseUCoak69nj0yN/H59nbPAVxH0AQAAylzirf8oes+D6bSftBtghS+dJF/3bs5ZoGkEfQAAgDKWmDVbsUf+adu+7fsqfNEEu2wH2BaCPgAAFaZ2FCUY3SL+rxcUeyJzI7V/h36KXHSu1LmT7QPbQtAHAAAoQ7HHn1b8hVdt2z9wB4UuHC+x2y3agKAPAECFMDP52dn83DbKT+yZ55V44y3b9g8eqND54+QLh20faC2CPgAAHmNq5mfr5ue24Q6J9z9U4sXXbNu/0yCFJp5NyEe7EPQBAIDV1KZUKK7kF0sVe/hx2/Z1rVFo3Gl2UyygPQj6AAAAZSC1vlaxex+SYvHMjrcTzpSvS2fnLNB2BH0AAIASM5tgRe+eqlRtne0Hx57IZljoMII+AABAKaVSij/4mFLLVthu4LCDFBi+m20DHUHQB4AyQyUU5As34bqDrbDz4ce27R82VKFjj7BtoKMI+gAAACWSeOc9JV563bb9vXspdNYptg3kA0EfAIAKZ6rtZCvu5LaztfZzH8if1JJlmyvsKBJRaMIZlNFEXhH0AQAAiiy1YaOipsKOI3zOWPl69nB6QH4Q9AEAAIopmVTsnqm2nKYROnGM/EMG2zaQTwR9AACAIoo9Nl3JxUttO3DA3gqM2te2gXwj6AMAABRJYtZsJd76j237h+6k0Elft22gEAj6AAAARZD89DPFnsiUPPX13k7hcafZNlAoBH0AACqEqaufra2f29506c/so3Eb+ZP89HNFpzxs274unRWeeJattAMUEkEfAACggFKLlyh61wPpd1H1th8653T5enS3baCQCPoAUGTZOuW5DyO3Tjk1ywFvMDfdNtx+nxSL2X743DPkHzzQtoFCI+gDAICSavymtrk3w26TNBti3ZkO+dGo7YfHny7/brvYNlAMBH0AAFAUHQns2XsHzGPF+KvL/j6C1PKVit0+Ran6hnTa8ilkZvJ339U5CxQHQR8AACCPTMiPTr43E/J96ZB/1qkKMJOPEiDoAwAA5InZ7bbhtnTI37jJ9kOnn6TA8N1sGyg2gj4AALAoq9kxpk5+w19vTX8hc0L+yOG2DZQCQR8AgAqTrZ9fLLk31Oa2vVRpKvH2HEVvu1cyy3XSQuPGKrDXnrYNlApBHwAAoL1SKcVmPKfYtCds19cpovClkxQYPsz2gVIi6AMAALRDKhpT9L5pSrz0uu37unVV+Jvnyz9wB9sHSo2gDwBAHnWkhCTcw9xsG7vnQSU/+Mj2/f36pkP+efL16mn7QDkg6AMAUEJuXpdeqcxGWNEbblNy4SLb9+80SOGLJ8hXU237QLkg6AMAUATM9HtD4t33Fb3pdltG0wjsO1LhC8dL4bDtA+WEoA8AAPKqtb+lMNV/shWActvZHXAbt0sqmVJ8+kzFHvpHph8KKnTGyQqdekKmD5Qh3/ra2pTTLpq6DRtUXVXl9AB3Yfyio/pMuc5pbWG29NfRY51ejpnTnEb+MIYLy3x/7ffTUejvd7MfPx/a+zmaP5dz3TY/x0bXZzX+WmYVewz76huUMlV1Fn6WObBdD+n0k6Te22X6QBsUc/z6UmlOu2hq6+pUU806NrgT4xcd1dQSDjNj2dQsaCHqnZu/vyxmSD2q8de3rd/vto6D5j5+PrR3TJo/l3vdtj7HxtdnNTdWi/k6HH/5dcWffs7pSYEReyh46vHysVQH7VTM8cvSHQAASsAE22y4zW27SVMB3itSy1cqevMdW4X80EnHKXTWKYR8uAZBHwCAEnJjwM+3cvsamA2wGq7/u5KLl9q+r2uNQhPPUuCAfWwfcAuCPgAAQFpywadq+OONmzfAMoKHj1bke5cpsOsQ5wjgHgR9AADQJmbJTnbZTm7brLXPruvPbZe9eFyxx59S9I77lFq7zh4KDBtqA37wmMPTaT9ojwFuQ9AHAAAVK7VshRpunKzEG2/bvtn0KjzhTIXSD1/PHvYY4FYEfQDIIy/fnIjKk3uTcG7bVMLJVsPJbbtN4vU3Fb35TqVWfmn7ZhY//K2L5U8/A15A0AcAAHmxrTcGuY9SSm3cpNidDyj2z2eUisflCwYV+saxmVn8Lp2dqwD3I+gDAICKYcpmNvz5ZiXmf2L7vl49Fb78AgUO3M/2AS8h6AMAgIpgymU23HKXtGmT7QcP2EeRKy+Sr08v2we8hqAPAEXA2n3vy60+k9v2suaW4GSX7JQTM4MfnXyPFI3afujYIxQ86Tgq6sDTCPoAgBa5pkRimcpdk14O69PdJF9fq+TceYrf/aAUi6eTj0+hM05W4LCDnLOAdxH0AQCAZyXenqPo/Y8olUzKFw4pPGmcAiOHO2cBbyPoAwAAz0lFo4o9/IRi055Id1K2mk74konyDxnsXAF4H0EfAAC0qBzX3LckuXiJotf/XYl35ti+raxz2QXybd/X9oFKQdAHAI9ibb23mO9n4we+Kv78K5lNsNass32zTCdy6Xny9ehm+0AlIegDQAFVYiUWNK21N5ZmN5rKfWDbUrV1ik6eovjMFzMHQiGFzjzF3nirzp0yx4AKQ9AHgCLLrbyS2wbQPskFn6rhL7couXCR7fsH9FfkqksU+Noetg9UKoI+AABwpeTHn6jhptsVveM+qb7BHgsceqDC32SpDmAQ9AHAJQq9JptlRXCNhZ/ZdfjRux5Qaskye8i34wCFLzpXoTFH2j4Agj4A5AVr8YHCS6ZDfezOB6QpD9vKOoZvQH+FJ52tiCmdOXhHewxABkEfAAqI9fhAxyXen5dZopN+JOZ/Yo+ZUpnhCWcq8s3z5N9lZ3sMwNYI+gDgch397UFzv43ILeFIOUeUQuKtd9Xwp78pdv+0LUt00gHfd+bJilx5ofzDhtpjAJpG0AcAwAVyS23mtrO/Kcp9uFVqzVol/jNX8WdfUsNfblXskSeVWr3GnvP37a3QuWfYgJ/adYg9BqBlBH0AAFzEDXX1Ex9+rMTsdxV/8VXFp/9LsYf+oeitd6vhl39Qw3U3KnrLXYrd82A6yP9T8aefVezuqar/9Z/S525S7MHHFH/uZaVWrrIfy9enl0Ljxir8rYsV2G0XewxA6xD0AQBAq5jwnZw7z864R6c8rIab71TDH29U/S9+r/prf7P5Ebv3IcUefVLxZ15Q/NV/K/Hu+0p+tlipaMzuWJv8/Asl5s1X4q3/KP7yLCU+WiBtqnf+lnS477+9Agfso/C40zL18IcPc84AaAuCPgAUgZuXU6Ay2WU0s9+1s/ENN9xmA7xZThO9b5qdcU9+8JFSi5cotXadFIs7f6qRUMjOyJtqOC09AsN3U/C4IxW+eKI6/fInilx+gUInHSd/+jiA9iPoA0A7dPQGWC/g5lxvSdXWKfHue3ZdvFleY5fRPPqknY1PLVvhXLWFr2cP+YcMVmDkcAVH76/gsYcrdNoJdh292bAq8uPvqNPPvm9n5E19+5YeoXGnKXjIgfIPGuB8dAD5QNAHAKCCmZtdTaBv+N1fFXvocVvpxiyvyTIbUQUPH63Q6SemQ/kERX7wrcys+/cuU/j8cxQ642QFjz9GwcNGK7DPSLuO3j+gv3xVXZyPAKBUCPoAAFSg5NLlit03TQ1/vtku0bH8PhvSg4cdpNB5Zyty7fftRlTBYw5XYK8R8g8eKF/Xmsy1AMoeQR8AgAqS/PRzRSdPUfTGyUrMnSelUvZ4YO8Rilx1qV12Ezz2CAWG7ixfOGTPAXAngj4AVIjmNsaC9yU/WmBLWdb/8o+K3naPkgsXZU4Eg3Z9feSHVyk09kT5evXMHAfgCQR9AChzze1Q21xwb+765uRuspTbzqdtfQ7IP1PCMvbYdNX/z3WK3j3VlrJUNGrP+Xp0U/CoQ9UpHfDN+npfTbU9DsBbCPoA0AbNhet8yO52mvtA6/BGIseGjfamWrMpVeLNd6SGBnvYrK0Pjj4gUxHn6isUPPKQ9CDuZM8B8CaCPgDkQXtmxQsxc15qBO7Sir/6hhr+/DdbJjPLbjx18URbLSd4/NH2ZlsAlYGgDwBlLnd2P7fdnjcX8Kbkos/tZlbx6TOVqs/M4PsHDVTk25dkNp6iPj1QkQj6AJDGTDTaKp/LttrLbHIVnfqoon+/R6mVq+wxs94+dOYpCl88Qb7evewxAJWJoA8AHsNvALYohzBeEImEEi+9ruifb1ZyzgeZY36/goceqPB3L1Pga3tkjgGoaAR9AABcJDH/EzVc/3fFZjynlFNFxz90J0WuukTBMUdS+x7AZgR9AADKXOrLNbb2feyRJxW78wGlVq22x33duyk07jSFzxtHDXwAX0HQBwAgrVzu00guXa74y7MyJTJvnKz6n//eVtIxu9km3nrXuUoKHnGwIt+5VIHhuzlHAGBrBH0AruDZtdYoiXIbT2bn2vgTM9Twu7/acB9/+llbItOEfsXjzlXpH9q9e9n197YO/tGH2Z1tAaA5BH0A8KjsTbj5Zma+s7PfuW03MAE/G/Kz7bb+/zT1MdrKrK03QT52z4N2xt7sXBufNdtW0THMOvvAbrsoePjoTAWdKy5Up1/+RGFTLjPdNzvbAsC2EPQBAE3KVuzJfaB526xqFIsp8c4cxe59SA2//KNdmpOYN3/zjL1Zbx84aD+73j5y7fcVOvcMBY853M7g+/v1tdcAQFsQ9OFJbpphRHlrz2xtoZRz0G7rrHglSXy0QLGpj6n+F39Q7OEnlPjwY+dMOtz37a3QsUco8q2LFbnmCoVOONZW0AGAfCDoAwCs1tbVz53dZ6b/q8zXMbVmreL/ekENv79esbunKjFnrnM2s84+eOQhinzvMhvwA4cdZAM/AOQbQR8AgDxIbdyk5Mef2F1qG667SfEXXlVqfa095+taYwN95MqL7Dr74FGHytezhz0HAIVC0AcAFEyplvTk44bZtmi4+U41/ObPit71gJKLPneOpn/I7jFM4YlnKfKDb9klOr7t+zhnAKDwCPpABWku7FTSeupCB75KVazlPB39/uXeJJvbbklq5Sol/jNXidfeVPzZl5yjW0stXuK00j9YB/RX6BvHKvKT7yp8zlj5dx3inAGA4iLoAwAqQvz5VxR79ElF77jP9qO33WsfTam/9jebHw1/uVWxBx9T7MlnFH/uZeeKrZmZ+9DYEzPh/pvnKXDgfvJ16eycBYDSIOgDAFzF3OiaXLxEyYWL7MOWqEyLPfQPRe+8Xw033Gb7jcVnvqjE7HeVXPCp7Sc//cw+8sHM3Af2HkG4B1BWCPoAgLKWmP/JVuvsuzz4F1U9+XdFJ0/RhnGXaOOkK+zx+t9fr4YbJyu1bIXtN+YLh+Xr0V3+HQfYvpmFD4zc07YbC516gkJnnaLwhDMVm/Fcpvzlj75tN60CALcg6AOoCLlBMbddqptFvaCQZTWTnyxS7B9Pqf7Xf1Lszgeco60THL2/09pa5NprFLn6coUvmWj7ZhY+dMZJtt1YYN+RCozYQ/5hQ23flL/0VVfZNgC4BUEfrpYNa6hcBHP3Sq38Usl585V4/U3Fp89UdMrDmXXzN92u6O1TlPj329KmeufqrzKVbJoSPP4YpwUAlY2gj7xoLnATwtBRubPvue3c2ffcdqm1popLpWu4YbJzk+st2jDpCsX++Yzir76h5AcfZdbNL1mWubBzJzuzHr5gfKbfiKlN3158nwBUAt/62tqU0y6aug0bVF3Fr0C9pM+U67Ri/NVOL8fRY6WZ05xO/pi/rzH795u/r7Hcvz8Pn4+bx2+xv0/50O7vdSNt/TjNXd/sxymhZr+vzWjr9a2y8DP55n+SWR+/YWPmUd8gNVWO8qhDnUaaOX/iGPmquihVXSVf585KmRtaBw2QdtvFuSh/378mbWssNfr3UY5joNKQI+BmxRy/vlSa0y6a2ro61VRXOz14gZllbWqGzMyyFmIdb3ZWN5f5+5ua1c39+5v6fNr6ObZ1/Db3tSmFYn+f8qG93+vG2vpxmru+HLV1jLX1+qbYXWA//EjJjxYo8fFCKRp1zmzN3MjaWOffXCtfn17y9+mtupPGt2rsFfL719zH8MLY8CpyBNysmOOXpTvoEPMDL/tDL7dtfkBmf0jmtuENTQUdg++zN6VWrFJizly7WdTmdfT/e7NijzypxPvztoT8cNgutTGbRdmKNRc2veQmeNShCuy5uw37HWWCd/aNQm7bBO9s+M5tN6W5jwEAbkfQBwBYqVWrlZw7L7Ox1AOP2nr0di39X29VbOpjdrOo7Dp6M6NvhUK2fnxowpnqdO01tiyl2SzKVqzZaVDmGgBASRD0URG8/BuGpmbXm5txB3KlPltsQ72pR28D/f/erOh90zIbS733wVfr0XfuLP8O/RQYvpuChx5oy1N2+tn37Y6wAacMZWsV698kS2oAVDKCPjyFX8EXVu7yrNx2sUIbmtaqMBuLK5kO9sk5H2ilbyc1/PIParj1bhvqze6yuUzNeL8J80cdqvD40zObRV17jTr913cVvux8hcadpuCYI+2GU9vCv0kAKB2CPlABCOgVKB3sE2++Y9fR23KWv/i9oulgH536qFKffKpUNOZcmP5BMGSwgscfrciVF9mdX02wD5swf+Qh8u++a2azqHDYubp9CPgAUHwEfQDNylfw5w1E/qTWrlPyi6WZajdvz1H85VmKT/+XYvc+lFlT/8s/2mU4JtjHHpuuxFvvKrVsufOnHZ2c+vTpMG9m6sPnn6Pg6APk276PcwEAwAsI+gC+Ind2P7eN4jEz7uam1/hLryt2/zQ1/OGGzDr6P96o6N/uUPTuqYpNe0Lxp59V/NV/K/Hhx5k19bllLkOhzJr6vUcoeNyRCk86W5HvXyldc7m9adYsz+noTH25KMRvDHKXGuW2c6v45LYBoNwQ9FFWsktKGitF0KyEcNtckEFxpdasy8zQp0O9qWwTveUuu4belLGMz3jOlrBMrVvvXL01X88e8g/dSYH99lLw2MMVPutUhb95niI/+ra9UdauqR97ooKHHCj/LjvL162r8yfRWHPjn38XANyKoI+ywBryytTcG7tKkJy/0Fa7sTfFXndjZoY+HepNrfrk5184Vzk6d7Jh3qyZD51+osIXT1TkB9/KrKf/3mUKnzdOoVOOV/Cw0fKP2F3+Af3lq2bXUACodAR9lEQlBzxsWz7e0JXlm8JoVIlZs9Xwp78peuf9ttpN7k2xViQi/44DFBy9v0JnnKzIdy9Tp//6ng3zdqOpvUbIP2iAfF1rnD+AUmHJDoByR9AHUNFylyzltvO5DttsRBV7/Ck1/PYvij0xQ6nVa+xxX5fOCuzzNQW/fpQN8naW/r+vVviSiQoef4wCI4fLt10Pey0AAG1F0EebMBMv9ZlyndMqrdwlTtl2U8fQOvleh51culzxF19V9I77FL3pdiXeeHvz7L2/b2+7bj7yk+8qdNo3FDx4lF2awyw9ACCfCPqoWLlr/nPbbtbcLHRz7VJp7g2J278npuxl/PGnbYWc6I2TFX/mBSUXmJr1mUo4gT13V+SSiQp/62JbCQcAgEIi6KOomgt4hdbc8gwUltuDe0tMbfrEv99W7FGzIdVttvSlKXsZf+OtrSrk+AcPVOikryvyw6sUOvtU+XYc4JwBAKCwCPooC+U244y28fIbKTMWzSZViTlzFZ8+Uw233m03ozK7zcb+8ZQSs82GVCucq9N8PvkH7qDQCceq04+/o/BFExQ4YG/5aqqdCwAAKA6CPpAnbpitbu4NVKGCeXNvAHLfzOW2S8Wsp0/Om293kY2/+JqtZW8fT/5L9b/+k92kKjb1McVffUOpzxZLsbjzJ9O5vvd2CuwxLFP68pyxilxzhcKXTlLgoP2kqi7OVWirYv22DwC8jKCPZlXqD1ovLzfB1qJ/v8fOzpv19NF7HlTskScVf+Z5W8vePl77d/qdSL1zdfoFs//2Coza195AG7nywkwd+29fagO+LX2ZDvxsSAUAKBcEfbRK7nr63LabNTfb3JzmvgbNvTHY1vW5DxRW0szCNyG56POtZucNXzgkX+9eCgwbqqAJ9Scca8tdmlAfvvwChU4cY0ti+rbv6/wJAADKE0EfHVLoJRjNhfFC/72VrlRf96b+3uzfk/torfjTz2Yq4Nx6t3Nka6akZWD0AQqddoLC3zzPrqmPXPt9Rb59iUITzlTQhPqD9rMbWAEA4DYEfaCRpsKmkRsy2xo4URyJd+bY5Tfmhlkj/vKsrSrgNGY2qQodf7QC+4yUf0B/1tQDADyFoI+vaG7JiVdlgzzcL/bwE/aGWnvDrMNuTnUiy6MAAJWHoI9WqcTZbN4A5E8+v5aJefMVm/aE0/uq2Izn7CPbbrh7qr2BFgCASkPQhyu0NSgS0vOjXL6Oqdo6uzFV/S//qNg9Dyrx9hyFxhxpH0bkwnPV+Zc/UWjiWbYPAAAI+igQExCzITG3XYm/GUDHJBd8quj1f7cbUykatcd8PXsoeNhBCl9xoe2bG2mD6dAf2HWI7cO9Km3pIAAUEkEfQNkym1ZF77hPqY2b0mk+rOChB9pQH/neZQoee4T8/ShxWSmYJACAtiPoAyiZlsKaCfhm0yrDzOBHLr/Aztrb6jioWAR8AGg9gj7KSqF/iJfLmnM0L7l4aeZ5waf22dS6j1xxgXy9etp+Y3xPAQBoGkEfQN50NHSbuvfRm+9welLwiINtrXtFIs4RAADQWgR9AGXBVNUxO9lmhcaNVfDow5xe6+Xe/J3bzl3XndsGAMCrCPpwNcKa+6XqGxS9fUqmqk5adg1+YPgw+5xvjBkAQKUg6AMomdSatXapTvKTRbZvymOGLzrXtjuqo8uIAABwO4I+0EYrxl/ttNARycVL1HDT7UqtWm37gX1HKjThTCkYtH0AANAxBH3Ag8p9eUpizlxFb74z/YnW237wmMMVOvUEyeezfWbjAQDoOII+gKJKvPG2YlMfy3T8PoXOOFnBw0dn+gAAIG8I+igJboh0t/Z+/+JPPavY409lOqGQwhPPVmDk8EwfFSVbESn3YZix1fgBAGgfgj7ygh/GaFEyqej9jyj+yizb9XXvpsjl59vNsAAAQGEQ9IEy0/mWXzgtj4hGFb39PiXf/9B2TfnM8OUXyNe7l+0DAIDCIOgDKJhUbZ0abr1byU8/s33/8N0U/uZ58nXpbPsAAKBwCPoACiK1eImiN9ym1LIVth888hCFx51m2wAAoPAI+gDyLjFrthpuvlOpDRttP3TmKQoedahtAwCA4iDoo6CylTRQIRIJxR5+QrEnnO975052qU7ga3tk+gAAoGgI+gDywszeN9xylxLvzLF9X6+eilx+gb35FgAAFB9BH0CHJZcsU/S2e5VKPxv+nQcp/M3z5evR3fYBAEDxEfQBdEji3fcVvel2pVausv3AfnspfMF4+TpFbB8AAJQGQR9tqtvOxljIFXvyGcUe+ofTk0InHafQKcc7PQAAUEoEfcAlakeNcVploL5B0dunKPHam7ZrdroNX3GhAgfsY/sAAKD0CPoVzMzkZ2fzc9sojea+HybgZ0N+brtUUitWqeGG25T8ZJHtB3YdovCVF8nfr6/tAwCA8kDQx1eY5TnZJTq5bSD50QI1/PVWpdaus/3gsUcoNPEs1uMDAFCGCPoAWiUx/xNF756a6YTDCl80QcHDDsr0AQBA2SHoA9gms0wndu/Dtu0LhxSedLb8gwfaPgAAKE8EfQAtSi5anJnJj8elYFChSePkHzTAOQsAAMoVQR/NYm0+kouXKHbX/ZtDfnjiWYR8AABcgqAPdFDNrBlfeRjZG5lzH25iQ/7t9ykVjUmBQCbk7zzIOQsAAModQR/AVySXLFPszvvTIT+aCfnnnkHIBwDAZXzra2tTTrto6jZsUHVVldNDqfSZcp3T2mLF+KudFprT4fF79FinkWPmtOa/H229voN8y1cqZdbkN6RDvumfdYpSu+xs2/AGXoPhdoxhuFkxx68vlea0i6a2rk411dVOD6XS1AZZblteUgodHb9NbXhllvs09/1o6/UdkUqH/Ojke5XauEny+xUaf7oCw4Y6Z+EVvAbD7RjDcLNCjt+6aJ2mz5+up+Y/pcc+fIylOwAyUiu/3Bzyfc6Nt4R8AADK26J1i/Tn1/+sY+46RjW/qdFZD56lyW9P1pebviToe1FTM71AS2zIv+2ezEx+yJTQPEv+oTs5ZwEAQDlZsGaBvj/j+9rzxj01+M+D9b2nv6eZC2c6Z6URfUboRwf/iKAPVLrU6jWZkL9how354fPPkX8nbrwFAKBcvPr5q/r1S7/WsXcfq86/6qyhfxmqP772R72/8n3nCmnMkDH6y/F/0aff/VT/ufw/+n/H/D+CfiVhph+NpdasU/SWuzIhPxxW5MJz5d9xgHMWAACUwhe1X+j6N67XN6Z8Q1W/rtLBkw/WT5/9qf71yb9UH6+31/Sp6qNL971Uj457VBv+a4OenvC0rjrgKg3qtmWyjqAPVKpNmxS9475MyE8Lnz9OvgH9bRsAABRPKv3f64tf138/+9/a6297acB1A3TV9Kv05MdPamMs83Pal/5vv/776edH/FyzL52t5d9frptPvFmnDDtFXUJd7DWNEfSBShSLKWo2w1q9Jv3K4VPonLHyD9zBOQkAAArNLLv56xt/1dgHxmq7326ng247SL966Vd6d/m7zhVS10hXnTzsZN1x6h1a/oPl+vcl/9bPDv+Z9um3j3NFywj6QIVJJZOK3vOgkkuX235wzJEK7DHMtgEAQGGs3LhSt751q85/4jz1+X0feyPtt6d/W498+IjW1K+x11SFqnTckOP0u2N/pzcueUPrfrxOj417TOeNPE+9u/S217QFQR+oJKmUYlMfU/KTRbYb2G8vBQ8ZZdsAACC/Zi+drV+++EsdcOsBNtxf+vilmjZvmg39WSP7jtRPD/2pXrnwFdX9V52emvCUfjD6B9q///7OFe3HhlkeZG66zd04qbmNlQqx4VIlKPaGWVnmz5nrOiL+xAzFZ822bf+uQxSecKZduoPKwmsw3I4xjHJl1tm/8cUbmvXFLHvj7IoNK5wzW3QOdtbROx+tE3Y5QSftepIGdC1cEQxm9CuYCZHZIJnbhjclXnxtc8j39d9e4XFjCfkAALSTmZV/4P0H9J2nvqP9b91fvp/77Dp7058yZ8pWIf+QHQ+xa+ufPe9ZLf/OCj1+zuO6fL/LCxryDYI+UAES73+o2DPP27avRzeFzxtna+YDAIDWWb1ptR7+4GG7rn74jcPtUpxxD43TX2b9RW8uedO5KmPUDqP0k0N+ohkTZ2jjTzfqpQtestVyjhx8pHNFcRD0wUy+xyW/WKrYQ49nOuGwQhPPkq9L50wfAAA0aV3DOj3+0eO6+umrtffNe6vX73rpjKln2Eo5c1fOda6SAr6AXU//w4N/qOnnTrfr7F+/+HX9+uhf69idj7VLdUqFNfoe1No1+miffI3f5tbcN/7+ZbVnjX5q3XpFb7o9Uyvf71f4wvHyDxronEWl4jUYbscYRiFsiG3Qi4te1POfPq+Zn8y0N9I2pX9NfztjP2rAKB2wwwH2YarltFYxxy8z+oBHpaJRRe98YPOGWKEzTiLkAwDg2BTfZG+YNTvOmrX11b+u1gn3nqDfvfK7rUL+sO2G6Yr9r9DUM6faTaq+uPoLTTt7mn508I/sUpy2hPxiI+gDXmTKaN43TamVq2w3eOQhCozYw7YBAKhULyx6Qf/3+f+rw+84XF1+1UXH3n2sfv3Sr221nKxdeu6ii/e5WPedfp+WXrNUH37rQ91wwg06c48z1aeqj3OVOxD0AQ+Kz3heyfkLbdsE/OBRh9o2AACVojZaq2c+eUb/8+L/6Ji7jlHnX3XWEXccoZ+/8HO7RCdrYNeBumCvC+zus59/73N9dNVHuvWkWzVuz3Havnp75yp3IugDHpN4e47iL2dmJvw7DVLorFNsGwAAL3tr6Vu6/o3rNemRSbYqTtffdNWYu8fo2ueu1cyFM1Ufr7fX9avup/Ejxtsw//FVH+uz732myadMtrvPFrrcZbER9AEPSX22WLFHn7RtX+/tFD73dNsGAMBrNsY26rF5j+mCxy5Q3z/01b637Kurpl+lu/9z91ZVcXao2UFnDz9bN33jJn1w5Qdacs0S3Tv2Xrs8Z2jPoc5V3kTQBzwitXadGu55UEom5avqkqmVH4k4ZwEAcL85K+bYuvVfv+frqvp1lU69/1Td8c4dmzen6hrpqqN2Oko/PfSneuTsR7TiByu0+OrFuv+M+3XZfpdpt1672esqBeU1PYjymoWVr/HbnnKZzWpoUMPf7lBq1Wr5gkGFLjpX/gH9nZPA1ngNhtsxhivHh6s+1HOfPqfnFj5ny16a3WgbG957uE7c9UT7GD1wtPy+8p7HLub4Jeh7SHOBnqCfX2UX9JMpRe+4T8mFi2w3PO40+YdX1owF2obXYLgdY9i7PvryI1sZxwT7Zxc+q+UbljtntjAbUB0x+AidsMsJNtwP7j7YOeMOBH20y7YCfeOZfrRPuQV9syY/Mftd2zbVdUwpTaAlvAbD7RjD3rGmfo3+Me8fdoMqM3O/eP1i58zWTLA3S3JM3fpDdnT3z7lijl/W6LtYU8Ee7pGPkJ94/c3NId/M4hPyAQDl7r0V7+m3r/xWh0w+RD1/21PnP3q+vYE2N+SbWfprDrpGMyfNVOr/pPTcec/p2sOudX3ILzaCPuBSyY8/Ueyfz9i2WY9vluwAAFBuvtz0paa+P9VuVLXHDXtoxE0j9ON//VivfP6Kc0WGmbX//bG/19wr52rhdxbqD2P+YGfx0X4EfcCFUqvXKPrAo7bt695NoQln2jYAAKW2rmGdXY7znae+Y0N9r9/10tkPnW03qvpg1QfOVdI+/fbRD0b/QE+Mf0K1P6m1s/bfH/197d5rd+cKdBRBH3CZVDSmqCmj2dCQ/hfsV+icsbacJgAApVAXrdM/P/6nfvjMD20t++7/r7tOuf8UWwbTLNPJGtl3pL574Hdt2cs1P1qj2ZfO1u+O/Z2+scs3VB3mnotCIOgDLhN7+HGlVn5p26FvjJG/v7u35wYAuMv81fM1Zc4UXTPjGh349wNV85sanTjlRP3+1d/b3Wmz9uyzp7496tuadvY0ffnDL/XOZe/oT8f9Safudqq6d+ruXIVCouqOizWuokPVneIo5fiNv/qG4tNn2nZg5HCFzjjZtoG24DUYbscYLh5TFee1z1/Tm0ve1GuLX9MbX7yh1ZtWO2e3tut2u+ronY62a+2P3OlI9e7S2zmDXMUcvwR9FyPol0apxm9q8RI13HqXrZvv69tb4cvOt5tjAW3FazDcjjFcOCbMm2D/7yX/tqH+kzWfOGe+akiPIfZm2cMHH24D/vbV/Ia5NQj6aFFzgZ6gXxwlGb8bNqr+r7faZ1+niMJXXmRvwgXag9dguB1jOD8SqYRdamM2pzI17F/+7GW73r45g7oNsjP1ppa9CfgDug5wzqAtCPpoUXsDPUE/P4o+fpNJNdx6t53Rl8+n8Hnj5B/irl0AUV54DYbbMYbbz+w0O+2DaXry4yf1/KfPNxvsq0JV2q//fjpwwIEaNWCUbQ/sOtA5i44g6KNF2wr6zSHo50exx2/86ecUf/l12w4ec7iCh4+2baC9eA2G2zGG28YswTFVcf750T81e+ls5+jWenbuuXn3WbMplamQg8Ig6KNF7Q36yI9ijt/YjOeUeCkT8gNf20OhM0+xbaAjeA2G2zGGWzZ35Vw7W28eMxfObPLmWVPO0oT6bLgn2BcPQR8tIuiXVrHGb/zFVxV/5gXb9u86ROFzz0w3fLYPdASvwXA7xvDWTLlLs8Y+u9Z+Wd0y58wWZinOoYMOtevrTbg/YIcDnDMoNoI+WkTQL61ijN/Em+8o9th02zbr8cMTz5ICAdsHOorXYLhdpY/hz9Z9pn998i89u/BZO2v/Re0XzpktOgU76eCBB9ubZ82M/UEDDnLOoNQI+mgRQb+0Cj1+E3PmKvbgP6T0P03fgP6KXHSuRBlN5BGvwXC7ShvDS2qX2FCfDfYL1y50zmztsEGH2Rl7E+4PH3S4cxTlhqCPFhH0S6uQ4zf50QJF730wUyt/+z4KXzJRvnDYOQvkB6/BcDuvj+ENsQ16ev7TmrFghl1jb5bmNMVUxDGz9SbcH7zjweoc7OycQTkj6KNFBP3SKtT4TS5cpOg9D0nRqHy9t1MkHfLVmRdt5B+vwXA7L47hz9d/rofnPmzLXj7zyTPO0a3t028fuzGVmbE3s/dm3T3ch6CPFhH0S6sQ4zfx7nuKPfS4bftqqhW+/AL7DBQCr8FwO6+MYbNB1eMfPa7pH0/XnBVznKNb7NlnTztjb8K92X22W4SNEr2AoI8WEfRLK9/jN/7ia4r/64XMmvyqLgqfP06+7fs6Z4H84zUYbufWMby+Yb2mz5+uJz56wob7Lzd96ZzJiAQitiLOibueqFN2O4UNqjyKoI8WEfRLK2/jN/1PL/bE00q88bbt+rp3U/iic+0zUEi8BsPt3DKGN8U36aVFL22uZ282rmqsV5deOnW3U3XCLifouCHHqUuoi3MGXkXQR4sI+qWVj/GbiscVe+BRJT/82PbNDL6dya/iBR6Fx2sw3K6cx7AJ9aaWvamQY5bmNMWstT9p15P0jV2/of377+8cRaUg6KNFBP3S6uj4TdU3KP7QP5SYl6mi4N9lZ4XGjZUvHLJ9oNB4DYbbldMYNmHeBHsT8E24b4pZgnPMzsfYZTnHDT1OfatYnlnJCPpoEUG/tDoyflMrv1T07qlKrVlr+4G9Ryg09kTbBoqF12C4XSnH8KwvZm2uZ2+W5ZjlOY31q+5nb6I1wd48hvYc6pwBCPrYBoJ+abV3/JoZ/NjUx2z5TCN0/NEKjGYLchQfr8Fwu2KO4XeWvaMFaxZo8tuTbbCvjdY6Z7Yw6+xNLXtb036nIzVsu2HOGeCrCPpoEUG/tNozfuPPv6L4sy/ZG3DVKaLwuWfKP5hqCigNXoPhdoUcw++vfH/zjP1zC5/Tmvo1zpktTJnL3Bn7r/X9mnMG2DaCPlpE0C+tNo3fWExRc9Otsx7f16eXwhPPorIOSorXYLhdPsfw3JVzbag3D1MZZ/Wm1c6ZLbpGutoNqkyoNzP35mZaoL0I+mgRQb+0Wjt+U2vXKTp5ypb1+MN3U3Dsidx0i5LjNRhu15ExvHLjSj364aN2tt7cRLusbplzZguz4+yhgw7dPGtPZRzkE0EfLSLol1Zrxm8qGlX01ruVWrbC9oNjjlTw0ANtGyg1XoPhdm0dw28ueVP//PifevLjJ5usZW9kQ73ZhXb0wNHOUSD/CPpoEUG/tLY5ftP/pKJ3PaDk/IW2G9hvL4VOOd62gXLAazDcbltj2MzSm3X2H335kW6ZfYuW1i11zmxhwrwpeWkC/uGDDneOAoVH0EeLCPqlta3xG5s+U4lXMzNG/l2HKDzhzPS/NJ/tA+WA12C4XVNj+Kn5T9klOWat/bwv5zlHt6gJ12jMkDE6bffTdPzQ49Wzc0/nDFBcBH20iKBfWi2N38TsdxV79Enb9vffXuGLJ0qhoO0D5YLXYLjZhtgGPT//Bc358j92GY6pa7+kdolzdmsH7HCAXY5z3JDj7Mw9UA4I+mgRQb+0mhu/qc8Wq+G2e6RkylbVCV9+gXxdOjtngfLBazDcIpFKaM7yOTbMm1BvHqZKTjKVdK7Ywu/za2TfkbaOvamMc/jgw+0sPlBuCPpoEUG/tJoav6bCTsONk9PfiPr0N6iTIpedL1/PHs5ZoLzwGoxyZOrV/2f5f/Teive0csNKG+gfnPugc/ar+tf0tzP25jFqh1H2uTrMuEb5K2rQX19bW/SgX7dhg6qrqpwe2qrPlOuc1hYrxl/ttFBojcevrz4d7u97RKklmRJtvvPOVmpAf9sGyhGvwSilulid3ZRq7qq5mrd6XjrQZ9orNmaqlDXFlLvcZ/t9tH+//bV//wM0vNueGtxrkHMWcJdivgYzo+9CzOiXVu74Ta2vVXTyvUp9mdk5MXTmKQp8bQ/bBsoVr8Eohk3xTXZ23jw+WPnB5tn6L2q/cK5omZmlv3TfS7Vf//2+svMsYxhuVtQZfYK++xD0Sys7flOr12Q2xFq33h4PHnmIgkcdattAOeM1GPn29rK39f6K9+1MvXk2gX7h2oXO2eaZHWd37rGzdum5i/bss6cN9Lv12s0+WsIYhpsR9NEign5pmfFbvWGTGm67N/2F35T+V+RT6BvHKjBqX+cKoLzxGoz2MgHeLrtZOVfvLntXH6z6wNaq35Zh2w2za+hNkN+px07aqftOGtx9cLtLXDKG4WYEfbSIoF9atR8tUOiBR6Vo1Ib88JmnyD9id+csUP54Dca2mDr02eU2Jtib9pwVc5yzLRvUbZD27re39u+/f+ZG2QGj8l79hjEMNyPoo0UE/dJJLlykDbdPUcj5VxM6Z6wCewzLdACX4DUYud5a+tbm0pXvLHvHLsNpjaE9h2pIjyEa3me4hvdOP9LPI/qMUJdQF+eKwmEMw80I+mgRQb807I23N05WdN16hTp3VnjimfLvRNUHuA+vwZXJ3BybXT9vZulf+/w1G/LN8eb07tLbzsrvv8P+drmNWXZjltwM7DrQuaI0GMNwM4I+WkTQL43oTbcruWSZYvG4qi47X/5Bpf1BB7QXr8HeZ2blzTp68zAbTrXm5lhzY6xZQ3/ggAO1b7997ZIbE+7LEWMYbkbQR4sI+sUXm/qYEnPmZtpHjFbN0YfbNuBGvAZ7x+pNq/X64tftzrEm0JuZ+m3dHGtq0ptAv3vv3W2lm+yymx1qdnCuKH+MYbgZQR8tIugXV/yl1xWf8ZxtB0bsofoTjmb8wtV4DXavxesX64H3H9i8pv7TtZ86Z5q29/Z72zBvHiP6jtAevfewN8u6HWMYbkbQR4sI+sWTXPCponfeL6X/mfj79VXo0kmqq69n/MLVeA0uTys2rLDB3SyxMc+frPkk01+zUB+v/ti5qnkmwO/bf1+NHjg6s66+//7qFOzknPUWxjDcjKCPFhH0iyO1arWiN9+hVH2DfFVdFL7yIvlqqhm/cD3GcGmZyjbZWvRmuc2CNQtsoN8Y2+hc0bLtOm9nl9qM7DvSbiyV3Wiqe6fuzhXexxiGmxH00SKCfuGZcG8q7KTWrJX8foUvmST/gH72HOMXbscYLqzaaK2djV+0dtHmEG9m5U1t+tZsLlUdrraVbbKbSplKN2b3WDNjb57NTbOVjjEMNyPoo0UE/cKL3fOgEvPm23bo9JMU2GtP2zYYv3A7xnB+mECfvQE2u7mUqW6zfMNy54rmmVrzZr28uRHWPGfLVppw36tLL+cqNIcxDDcj6KNFBP3Cij//iuIzX7TtwEH7KXTCsbadxfiF2zGGW8+sjTcz89n18ubZBHnzo9PUoDdhf1vMDbHZCjdmQykT7M3MPNqPMQw3I+ijRQT9wsm9+dY3oL8il0yS/D7nbAbjF27HGJZWblyplRtW2htgzcP0l9ctzyyzWbvQLrX5ovYL5+rWMQF+c4WbdKA34X7YduycXQiMYbgZQR8tIugXRmrtOkVvuM2uz1dVF3W66hL73BjjF25XCWN4Se2SzTPwueE9224vsyOsWWaTXS+fW4sexcPrMNyMoI8WEfTzLxWPK/q3O5RavtLO4JuZfDOj3xTGL9zOC2M4txRldmlNtixla254baxvVV+7Rn776u3Vp6qPfTZr5XtX9Va/6n4a2G2ghvQY4lyNUuN1GG5G0EeLCPr5F3voH0q8+75th04co8CofW27KYxfuJ0bxvDa+rVfmYU37WyYb20pyqwenXpsvuHVzMTnPptH52Bn50q4Aa/DcDOCPlpE0M+vxBtvKfb407YdGDlcoTNOtu3mMH7hdqUaw2bN++Y18c76+C83famltUttuy5a51wpvbDoBafVOjXhGhvYTZjPLUuZDfTmPLyD12G4GUEfLSLo50/ys8WK3nq3bfv69FLksgukUND2m8P4hdsVagybCjV29j1nFj67rKY1JSebY25ozYb2HbvtqN5detvlNeZhltaYZ4J8ZeF1GG5G0EeLCPp5sqleDdf/Xan1tVIkosiVF8rXY9s7SzJ+4XbtHcPZ8G6es4E+u6SmrRVqcpm179kgn52Nzz761zR9rwwqG6/DcDOCPlpE0M+P2H3TlJg7z7bDl06Sf+AOtr0tjF+4XXNj2IT13HXwpr1o3ZYa8q1l1sNnZ9xzH9nZd3Pjq2mbmXk2h0J78DoMNyPoo0UE/Y5LzH5XsUeftO3Q8UcrMPoA224Nxi/calN8k9259b0l72lZ/bKtltjMX53ZCbo1TFhvah28KTm563a7OlcBhcPrMNyMoI8WEfQ7xtTLb/jfW6R4XP5BAxW+eIJzpnUYvyh35gZXE+LnfTlPc1fO1Zzlc2zAN4G+NRpXqDEBPrdPhRqUGq/DcDOCPlpE0G+/VDKp2N/uUHLp8vQXspMiV10iX03bxiLjF6VWG63dshFUo6U25tmcbw0z+242ehrRd4Td1dXc9GqCfNdIV+cKoDzxOgw3I+ijRQT99ovNeE6Jl1637dCEMxUYNtS224Lxi0IzS2xyl9VkK9eYvnleU7/GubJlnYKdMstrGi2z6depvw7Z+WDnKsB9eB2GmxH00SKCfvskF32u6G33SukhHzxgHwVPOs450zaMX+TD6k2rNXvp7K1m5LOz8u0pRblvv33trPzwPsP1tb5f0+69drehvimMYbgdYxhuRtBHiwj67WBKaf71VqVq6+Tr1VORKy+Sgi3Xy28O4xdtVR+v15tL3tQbX7yhWV/Mss8m1LdFUzPzZpmNed6hpnUVo7IYw3A7xjDcjKCPFhH02y5691QlP1ogBQIKX36B/H17O2fajvGLpmyMbbQz9AtWL9hcknLx+sVKJBO2os226sybsN44wNtQ74T7fGIMw+0Yw3Azgj5aRNBvm/is2Yo/McO221pKsymMXxjvLHtn8+y8ma3/z/L/OGeaZ6rVZJfX7NlnT/sY2nOodum5i3NFcTCG4XaMYbgZQR8tIui3XmrFKjXcOFlKJDKlNC86Nz3qfc7Z9mH8VhYzM//+yvc3l6k0z28ve9s527yRfUduDvQj+ozQ7r13tzvAlgPGMNyOMQw3I+ijRQT91klFY4reeJtSX65Jf9HaV0qzKYxfbzJLa0yt+fdXvL+55vza+rV25r4lu/XabfPsvLkJNlumspwxhuF2jGG4GUEfLSLot07s4ceVeOc9225vKc2mMH7dy8zGf7z6YztLn1u+0jzXReucq5p3wA4H2Oo2owaM0l7b72Vn7d2IMQy3YwzDzQj62IoJ9rlBnqC/bck5Hyg69VHbDuy3l0KnHG/b+cD4LW/mplgT3s1NsXNWZHaEzT5aw6yjz94Iax5mxn7/HfbXQQMOcq5wP8Yw3I4xDDcj6GMrBP22MUt17JKdaKzDpTSbwvgtnSW1S7Ry40qt2LBCKzdknpfVLds8K29m6c351hjQdcBW6+fNkhsT7PtW9XWu8C7GMNyOMQw3I+jDai7QE/RbkEjYm2/NTbg+v1+hKy7sUCnNpjB+Cy87E2+W2phqNmbd/II1C5yzrZdbdz7bHtJziA34NeEa56rKwxiG2zGG4WYEfVjbCvSNZ/ohxWe+qPjzr9h28LgjFTzkQNvOJ8Zvx32+/nM7A2/Wymdn4rO15z9b95lz1baZWXlTc35Qt0Gbw3y2Fr05hqYxhuF2jGG4GUEfFkG/bXLX5ft32VnhSWfbdr4xflsntyyl2TAqe/NrW2bmzTKaxjPy2bapP4/2YQzD7RjDcDOCPiyCfuullq9U9G93KBWPy9e9m8JXXiRfp4hzNr8Yv1uYNfJ2Rn7tQi1au0gfrPpgc735TfFNzlXN69m5Zya8p4O7nZnvPmirXWHNjbHIP8Yw3I4xDDcj6MMi6LdOqr5B0RtuU2rtOvmCQYUvO1++PK/Lz1WJ47fxmnkzQ28Cvqlw0xrbdd7Obh5lylFm686bmvPdO3V3rkAx8RoMt2MMw80I+rC2FfSRlh6+0TvvV3LBp7YbOuNkBUYOt+1C8fL4/XDVh3ZWPnsDrOmbkN8aZibehPjGS2xM28zco3zwGgy3YwzDzQj6sAj62xZ/9iXFn3vZtgOj9lXoxDG2XUheGL9mnXx2iY2ZqTfhfls7wGYN7DrQzsibGXr73Dvz3CnYybkC5Y7XYLgdYxhuRtCHRdBvWWLefMXufcjO6vsG9FfkkkmS3+ecLRy3jN+Pvvxo68o2axfatgn29fF656rmmRn6IT2G2Pry2WBvas5Xh/m363a8BsPtGMNwM4I+LIJ+88x6/Ia/3CrFYvJVdcncfFtTnDFVbuPXLrNZ+b5damNCvHm0trKNWWpjZuRNiDfLbLLLbXbstqNzBbyI12C4HWMYbkbQh0XQb0YyaSvsJJcutzP4ZibfzOgXS6nGr1leY8K8CfXZQG/W0LeGmZnPzshnZ+jNzbCoTLwGw+0Yw3Azgr4LmVCe7xBO0G9a7B9PKfHvt207eNxRCh4yyraLJd/jd/mG5bbGfLZE5ZLaJVq5caVWblipeDJur1lat9QuxdkWMxNvQrx5mEDP+nk0hZAEt2MMw80I+i5E0C+OxHsfKPZA4TfFaklrx+/qTavt2ngT3E29eRPeN8UyteVNjfnH5z1uz7em3nwuU8EmuxuseR7Wa5gN9CP6jlBVqMq5CmgeIQluxxiGmxH0XYigX3ip1Wsy9fKjMfl6dFPkioukAm2K1ZLs+DU15M3Nras2rrLHp8+frnmr5mnRukX2+PqG9fZ4W3WNdLVLbbKbR2UDvZmtN8/cDIuOIiTB7RjDcDOCvgsR9AvLhHu78+3KdKj2++2mWP5+fZ2zhWEq05jlNLZizRrnOd1fuHqhFq1ftDngt9WArgPUp6qP+lX3+0q9edPu0amHcyVQGIQkuB1jGG5G0Hchgn5hmeU6ZtmOETxxjIKj9rXtjjI7vGZn4BsH+mV1y5yrWm9oz6FbhXbzbGbi+1b1Ve+q3uoW6eZcCZQOIQluxxiGmxH0XYigXziJN99R7LHpth3Yc3eFzj7VtlvLbAxlKtSYqjULVi/YHOwXr1/sXLFtJqzb8J4O8f279NfAngPVu0tv9a1OB/j0s5mhZ/dXuAUhCW7HGIabEfRdqLmgXztqjGpmzXB6bUPQl5LLVyp2+xSlNmyUr1dPRa64UAqFnLNbmNCeu8zGhHsT7E2N+dZobhmNaZt18bn4AQO3YwzD7RjDcDOCvgsR9PPPbIoVveUupWrrpEhEiQvP1PuppbaO/AcrMyHebAxllt+0llkfbyrUmBryu/fefXMpys7Bzs4V28YPGLgdYxhuxxiGmxH0XYignx/ZkpQLV8zTx9MfUt2mddrgj+nR6k/0aV3rltqYEG+q1tiKNY0q13QJdXGuaj9+wMDtGMNwO8Yw3Iyg7yLNhXET8Btra+D3UtDfENtg18WbDaHMs7nRNbsxlKkxb+vMb1jZ6prypsSkWV5jbn41wT6726uZrS80fsDA7RjDcDvGMNyMoO8iBP0t5n05b+sylOl29sbXtpai7JwKaZB6aHDfXbXzoK/ZGflsFRuzbr5Xl17OlcXHDxi4HWMYbscYhpsVNeivr60tetCv27BB1VXe2MGzz5TrnNYWK8ZfLR091unlmDnNabROsx+7RBauywT3T9d9qs/s8yJ9vv4z21++YblzVevt1M0E9500qOuO2jEd5Aebx1tfaOCnteqbSv8DOHy0dMgo5+ry4aXxi8rEGIbbMYbhZsUcv74ps+9PdQpG1CnUWZ1DndQp2ElV4Sr16NI9/ehh2/nGjH7rlGJG31Sq+XDVh5qzfI690TVbxebz9Z87V7SOmXE3JSe3r95+846uubPyA7sOdK7cIv78K4rPfNG2Awfso9BJx9l2uWEmCW7HGIbbMYbhZkWd0T/wukNanNEPB8I28Pes6qmaSHX6DUHmzYB9U5B+c2DeJHROP0ecZ3M84pw315s/Z/68+ThZBP2mNb5xN99Bf039GrsOPrsmPvswwd4E/HeWveNcuW014RoN7zPcronPro/vX9PfbgplNodqq/grsxR/6lnbDgwfptC4Jn4jUib4AQO3YwzD7RjDcLOiBv0zJo9Lrdm4RhuiG5xDhZH5LUEP+5uCSKCTqiNVX3mz0LVzV/XonH5TYd9YpK9Nt82fKWflEvTronWbg3u2pnzuennzXB+vd65uHTMrb2bizQx8dm28mZHfvdfudpY+XxL/fluxfzxl24Fdhyg08SzbLlf8gIHbMYbhdoxhuFlRg372ZtxoIioT+FdvWK3ahjptitWrIR0MzfOm2KZ0u0Hr62u1ZtMae5192PZaxRIx+8EKJfe3BI1/e7B5ydHm58w1jZcjZY9n+luuDQW+uvlSW7Q36JtgbirRmDdY5nljbKP2GHutZj/wX84V0vEzMstYcl21U93mSjWmFKWpXGPabQ3xRvdO3bcK8uaR71KU25KYM1exB/8hpYehb0B/RS46VwoGnbPliR8wcDvGMNyOMQw3K0nQ74hoPGrfDNSn3wzUO8+2n36TYAKoebOQe3z9hvVK+JL2WPaceV67aa1Wp99AmOdiCfqDX3lzYJ4bvwHYEN+gl5a+oKQvoepO1ZsD+vquVzpXbFG/9P9o/ZPHOr0tup7wjNNqmvkzudd06vdzp7WF+ditYdbAm2U0Zp28efTu0ls7dN1hqyDfNdLVubo0kh8tUPTeB9ONdMjfvo/Cl0yUL7xliVe54gcM3I4xDLdjDMPNXBf026o1/4Mm7K8xjw3Z3xyY58wbAfNbh/X16zNvJhq9uTBvOgrhy/gqfbzxQ6e3RXNhvKWg3zjQZ7Um6B/c6cXN4d0G+EZh3jyXOsC3RnLR54refp+USMi3XQ+FLz1Pvi6t3522lPgBA7djDMPtGMNwM4J+ByRTSRv4c39TYH6zkD3WeDlSa5cd1UbX67nPn1PPLj01uOcg56j024/8TmuLOw4ephMuvM3pbZFdlrPv2b/eaolOljk+75Ff2/sZqkJVGvbAHc6ZLTpyM265SMz/RLEp06RYTL4e3RS+ZJJ8Ne55weYHDNyOMQy3YwzDzQj6LtKeNfqNb7rN6sjNuG6RePMdxR6bbtsm3NuQnw77bsIPGLgdYxhuxxiGmxVz/H51OhoFY4J89g1AbrtSxF96fUvI71qj0AXnuC7kAwAAuAVBv0DMzHx2dj63XaliT8xQfMZztu3r2UPhy86Xv3cv2wcAAED+EfRRWKmUYtOeUGLWbNv19e2tyGXnuWpNPgAAgBsR9MuAV5f0pJJJRe9/RIm359i+f0A/RS6dJHV2R3UdAAAANyPoF1GlLeeJ3/2gknPn2bZ/6E4KXzhBckGdfAAAAC8g6CP/YnFFJ0+xZTSNwIg9FD5vnBQq7x1vAQAAvISgX2CVdhNuKhpV9I77lFy4yPb9I3ZX6IyTbRsAAADFQ9BH/jQ0KHZ7OuR/tth2TcgPn3lKuuGzfQAAABQPQR/5kQ75DX+/V8nFS2w3sNeemZDvI+QDAACUAkEfHbep3ob81LLlthvYby+Fxp5IyAcAACghgn4ZaK4az6ZLf2YfjdvlxtTJ3xzyD9pPoVOOJ+QDAACUGEEfHRJ/YoYSH35s28HR+yt0wrG2DQAAgNIi6KPd4i+8qriz461/+G4Kfv1o2wYAAEDpEfTRLol331P8Xy/Ytn/nQQqdxY23AAAA5YSgX0bcUnM/+fEndl2+4e/XV+EJZ8rnZygBAACUE9JZMzrf8gunhVzJxUsVnfJwupGSr2cPhS84RwqFnLMAAAAoFwR9tFqqtk6xO++T4nH5qqsyIb9zZ+csAAAAyglBH62SWvmlGm64Tan6BvnCYYUmnS1f927OWQAAAJQbgj62KbVilRpuu0fasNEu0zEz+WZtPgAAAMoXQb8E2nrTbSk3yrIh/+9325DvC6dD/oXj5RvQ3zkLAACAcuVXfb3TBLZmdru1IX9TvQ35oUnj5CfkAwAAuIJfv/mN9OGHThfISC5ekg7599qQr2AwE/IHDXDOAgAAoNz59fHHsmH/6aedQ6h0qVWrFZ08RWposCHf1Mkn5AMAALiL3+5mGotJd94p3XyzVFvrnEJTvF5fP7lwkRpunJwZE2mhc0+Xf8hg2wYAAIB7+PXTn0q77JLpvfBCZnZ/zpxMHxUl+eHHmZn8dMi3N96ef44CQ3d2zgIAAMBN/NpjD9mwf/zxmSOffpoJ+088kenDMjP52dn83LZXJOd8kNnx1ugUUejiiczkAwAAuJgvlea0pddekx54QFqxItMfPVoaP17q2TPTz5PaujrVVFc7vfJkgnxuWcumgn0py17mU+LNdxT7x1OSGQpVXRS5aIJ8vbdzzqIxN4xfoCWMYbgdYxhuVszxu3Ud/YMOkv7rv6QDDsj0X31V+vWvpbfeyvThOfFnX1Lssek25Pu6dVXkm+cT8gEAADzgqxtm9ekjffe70llnZfpLlkh/+IM0bVqmX2S1o8Y4LeRbfPpMxZ972bZNuA9/8zz5enSzfQAAALhb8zvjnnqq9IMfSAOcsooPPZQJ/Mzuu9+GjYreerfir75hu2YTrPDFE+Wr4degAAAAXtF80Df23lv6yU+kgw/O9E3IN2GfwO9ayaXL1XDDbUp+ttj2/SN2T4f8CfJ16Wz7AAAA8IaWg77Ro4d05ZXS6adLvXtnjhH4XSkxZ65it9ylVG2d7QePPEThs06VAgHbBwAAgHdsO+hnmaBvym5OmiQNdsou5gb+N9/MHCtTXiuH2Vb2ptupjykVj9u+CfjBow61bQAAAHhP64O+0aWL9PWvZyrxXHGFtOeemeMm8F93Xea4qdSD8lHfoOgd92256bZLZ4W/eb5dsgMAAADvalvQz3XIIZlSnN///pbA/9570vXXS//3/0rPP585hpJJrfxSDTfdruSCT23f17uXwpdfIP+AfrYPAAAA72p/0M/aZ59M4L/sMmmnnTLHPvpIuuWWzNr+P/5ReuSRzNKe5csz51FwyXnzbchPrV5j+/5hQxVJh3xfd8pnAgAAVIKOB/2sww6TfvWrTODP3rS7Jh0yZ8+WHnwws7THzP7/93/L/+67mfPIv1TKrseP3vuQFItJPp+Cxxyu8IQzpVDQuQgAAABe50ulOe38+uADae7cLc85YvF4OnOmQ6fZidcsATJlPJthNsyqmTXD6bWfuRl306U/c3rNa+qmXfPnmjteTlLRqOJPzFDi7TmZA5GIwmedIv+uQzJ95AVbr8PtGMNwO8Yw3KyY47dwQT/Xxo3Shx9ufsTSDxv0c5nQP2KEdMQRzoGMcgn6Wa39OMWWXL5SsSkPb16q4+vVU+GJZ8nXs4ftI3/4AQO3YwzD7RjDcLNijt/8Ld1pianWY9byjx8v/eIXil57baZc59ChzgVpr72WWdf/pz9J8+c7B9EaiXffU/Rvd2xZj7/7ropcdj4hHwAAoIIVJ+g3kjQ37Zqgnw79NtxffLG0226Zk//+t/Tzn0tTp0r19ZljaJKpiR97bLpiDz0umfr4fr+Cxx+j8Pj01zYSca4CAABAJSpJ0O8z5TqnlWZ+dXHUUdLPfqbaBaukqiopkZAefTRTphNNSq1dZ2fxE2++Y/u+rjUKXzJJwdH72z4AAAAqW0mCfov+/GfphBMy7c8+yzybnXfNplyw4rNmK3rbvUotX2n7gaE7K/Kti6iPDwAAgM3yEvSbuoG13cyM/oQJ0o9/vGU5jwn5JuxXeOBPfrZYDTfcZivrmBl9WzrzqEMVmnRW+pvQ2bkKAAAAKMcZ/ayvfc0u57F23TXzXKGBP1Vbp9jDTyh6691KLVthj/m276vIlRcpeOQhNvADAAAAuco36Ocya/UnTdqyEVc28P/ud9Ibb2SOeVFDgxJv/UcNf/qbEu9kauP7wiEFjz86HfIvlK+v8/UAAAAAGnFH0De+/vVMlZ6TTpKyNfjfeSezpv9//kd6+eXMMbeLxZR4931F756q+v+5TrFH/pnZ4TbNrMUPX3WJgqMPsH0AAACgOb71tbUd3jDLVNFZMf5qp9e8rartOOyfO3qs08sxc1rm2ZzLth3+zz5T4IUXFHjppUxZSUdq550VP/RQJXfbTam+fZ2jGR3+HB2t/TitZXaz9a9arVQ6zPv+/Y5S8766h4Bv+z5KjdpH2nN35whKqW7DBlWbe0kAl2IMw+0Yw3CzYo7fvOyM29FdZ83ut41ld8NtcWfcFSukGelzzz+f2X03V48e0oAB9pHq1VtdPn9DG8//sXzhsHNB0/K9M65ZX6+Nm5TatCndyXypk59/oeSnnyu1YpVS69bbY435+/VVYMQe8o8cbktnonywIyPcjjEMt2MMw82KOX7LNug3pdnAn0xK06dnHqtXOwe3aFhZp+5n7qc1C1Ly9e4lX59e6lY/zzm7hflc2hL0UyvTQX3ll0qmA3v67ZmS6YdMoE9mvqRmp9rU+lrb3hZfp4idufcP2UmBr+3BrrZljB8wcDvGMNyOMQw3q7ign5U7e9/SLH+L1qyRFiyQPvkk85x+NCxasTnoy5nR7zEws+4915qlneWr6iKlH90Dn6t2l6OcM470G4qaBc9rbWyHzdVv2srMzvt6dJNvu+3k75t+09G3j33j4avhBcst+AEDt2MMw+0Yw3Azgr7TbqxVQb8pny5S5xl3qnbIETagmxn47lVfDeprPg85rcwbgdx+S0z1G39NTfpNRPr6UPrhPNtZ+uqqdLDvnnlsxyy9F/ADBm7HGIbbMYbhZsUcv+6putMRgwfZp+DRhyl07hmKfO8y228sOHp/BUYOl3/oTrZvArwN6CasO78JMDP+gT2GKXjs4QpfMF6dfvZ9Rb51sULnna3QOWMVOuMkhU7+ukLHH21r3Af239t+PEI+AAAAiqkygn4rBY8/Jh3UT1b4vHG2bwJ85OrLFfnRtxW59hp1+uVPFPnxd2ygDx42Wv6d028gzAw+AAAAUGYI+gAAAIAHEfQBAAAAD3Jt0G/qxl4AAAAAGZ6b0W/8BsD0s8dy2wAAAICXVezSHVPWM1vaM7cNAAAAeAFr9AEAAAAPIug3gxl+AAAAuBlBHwAAAPCgDgX95m50rR015iuPQmvucwEAAAAqkedn9LnpFgAAAJWIpTsAAACABxH0AQAAAA8i6AMAAAAeRNAHAAAAPIigDwAAAHhQQYJ+zawZ9tG4TQUcAAAAoDhKMqO/YvzVTgsAAABAIbQp6Bd6E6rszH8h8NsDAAAAVBLW6AMAAAAeRNAHAAAAPIigDwAAAHgQQR8AAADwIII+AAAA4EEVH/SpxgMAAAAvYkYfAAAA8CCCPgAAAOBBBH0AAADAgwj6AAAAgAcR9AEAAAAPalXQ73zLL+yjcbsUyulzAQAAAMpVh2b0TWnKxo9Syf37S/25AAAAAKXG0h0AAADAgwj6AAAAgAdtFfSza95zHx1RM2uG0wIAAABQTK2a0Wf9OwAAAOAunlu6w5sQAAAAgDX6AAAAgCcR9AEAAAAPIugDAAAAHkTQBwAAADyIoA8AAAB4UNkGfVODv/HDoNQnAAAAsG3M6AMAAAAeRNAHAAAAPIigDwAAAHgQQR8AAADwIII+AAAA4EEEfQAAAMCD2hT0KWUJAAAAuINvfW1tymmrz5TrnNYWK8Zf7bTyp27DBlVXVTm99jGfayE+N2Bb8jF+gVJiDMPtGMNws2KOX18qzWmr8y2/cFpbFGIWv7auTjXV1U6vfcznym8YUAr5GL9AKTGG4XaMYbhZMcevv3bUGJmH2xDyAQAAgOZxMy4AAADgQQR9AAAAwIMI+gAAAIAHEfQBAAAADyLoAwAAAB60VXnNrEKXrqQsFtyM8Qu3YwzD7RjDcLOiltd0ngEAAAB4CEEfAAAA8CCCPgAAAOBBTQZ9dp0FAAAA3I0ZfQAAAMCDCPoAAACABxH0AQAAAA8i6AMAAAAeRNAHAAAAPIigDwAAAHgQQR8AAADwIII+AAAA4EEEfQAAAMCDCPoAAACABxH0AQAAAM+R/j+pkYDuzyP/3wAAAABJRU5ErkJggg==;" vertex="1" parent="1">
          <mxGeometry x="110" y="60" width="762" height="561" as="geometry" />
        </mxCell>
        <mxCell id="lFWqmO6kSk8XSNsCCj2o-2" value="" style="endArrow=none;html=1;rounded=0;strokeColor=#00CC00;" edge="1" parent="1">
          <mxGeometry width="50" height="50" relative="1" as="geometry">
            <mxPoint x="71" y="393" as="sourcePoint" />
            <mxPoint x="221" y="393" as="targetPoint" />
          </mxGeometry>
        </mxCell>
        <mxCell id="lFWqmO6kSk8XSNsCCj2o-3" value="" style="endArrow=classic;html=1;rounded=0;" edge="1" parent="1">
          <mxGeometry width="50" height="50" relative="1" as="geometry">
            <mxPoint x="390" y="450" as="sourcePoint" />
            <mxPoint x="230" y="450" as="targetPoint" />
          </mxGeometry>
        </mxCell>
        <mxCell id="lFWqmO6kSk8XSNsCCj2o-4" value="" style="endArrow=classic;html=1;rounded=0;" edge="1" parent="1">
          <mxGeometry width="50" height="50" relative="1" as="geometry">
            <mxPoint x="476" y="494" as="sourcePoint" />
            <mxPoint x="216" y="494" as="targetPoint" />
          </mxGeometry>
        </mxCell>
        <mxCell id="lFWqmO6kSk8XSNsCCj2o-6" value="&lt;b&gt;Buy Entry&lt;/b&gt;" style="text;html=1;strokeColor=none;fillColor=none;align=center;verticalAlign=middle;whiteSpace=wrap;rounded=0;" vertex="1" parent="1">
          <mxGeometry x="120" y="370" width="60" height="30" as="geometry" />
        </mxCell>
        <mxCell id="lFWqmO6kSk8XSNsCCj2o-7" value="&lt;b&gt;candle not touch the average lines&lt;/b&gt;" style="text;html=1;strokeColor=none;fillColor=none;align=center;verticalAlign=middle;whiteSpace=wrap;rounded=0;" vertex="1" parent="1">
          <mxGeometry x="310" y="430" width="230" height="30" as="geometry" />
        </mxCell>
        <mxCell id="lFWqmO6kSk8XSNsCCj2o-8" value="&lt;b&gt;average line Broken Candle&amp;nbsp;&lt;/b&gt;" style="text;html=1;strokeColor=none;fillColor=none;align=center;verticalAlign=middle;whiteSpace=wrap;rounded=0;" vertex="1" parent="1">
          <mxGeometry x="300" y="470" width="210" height="30" as="geometry" />
        </mxCell>
        <mxCell id="lFWqmO6kSk8XSNsCCj2o-10" value="" style="endArrow=classic;html=1;rounded=0;" edge="1" parent="1">
          <mxGeometry width="50" height="50" relative="1" as="geometry">
            <mxPoint x="410" y="530" as="sourcePoint" />
            <mxPoint x="190" y="530" as="targetPoint" />
          </mxGeometry>
        </mxCell>
        <mxCell id="lFWqmO6kSk8XSNsCCj2o-11" value="" style="endArrow=none;html=1;rounded=0;strokeColor=#FF0000;" edge="1" parent="1">
          <mxGeometry width="50" height="50" relative="1" as="geometry">
            <mxPoint x="180" y="550" as="sourcePoint" />
            <mxPoint x="390" y="550" as="targetPoint" />
          </mxGeometry>
        </mxCell>
        <mxCell id="lFWqmO6kSk8XSNsCCj2o-14" value="&lt;b&gt;Candle not&amp;nbsp; touch the green line&amp;nbsp;&lt;/b&gt;" style="text;html=1;strokeColor=none;fillColor=none;align=center;verticalAlign=middle;whiteSpace=wrap;rounded=0;" vertex="1" parent="1">
          <mxGeometry x="260" y="510" width="290" height="30" as="geometry" />
        </mxCell>
        <mxCell id="lFWqmO6kSk8XSNsCCj2o-15" value="&lt;b&gt;&lt;font color=&quot;#ff0000&quot;&gt;Stop loss&lt;/font&gt;&lt;/b&gt;" style="text;html=1;strokeColor=none;fillColor=none;align=center;verticalAlign=middle;whiteSpace=wrap;rounded=0;" vertex="1" parent="1">
          <mxGeometry x="310" y="532" width="60" height="30" as="geometry" />
        </mxCell>
      </root>
    </mxGraphModel>
  </diagram>
</mxfile>
